<svg xmlns="http://www.w3.org/2000/svg" width="256" height="250" fill="white" class="bi bi-petpal" viewBox="0 0 256 256">
    <path d="M255.68,110.77a29.21,29.21,0,0,0-1.37-7.65,5.7,5.7,0,0,0-1.59-2.54A43,43,0,0,0,247,95.66a66.69,66.69,0,0,0-15.22-7.55,3.13,3.13,0,0,1-2.19-2.2c-1.3-3.55-2.58-7.12-3.92-10.65a1.6,1.6,0,0,1,.53-2.05A41.69,41.69,0,0,0,230,69.35a16,16,0,0,0,4-9.9c.08-1.93.06-3.88.3-5.79a7.57,7.57,0,0,0-.61-4c-1.55-3.67-3.24-7.28-4.74-11a2.52,2.52,0,0,1,1,.76c1.52,1.7,3.07,3.37,4.52,5.12,2.17,2.6,6.66,3.46,10.1,2.25,1-.35,1.68-.92,1.74-1.89a38.94,38.94,0,0,0,.18-6.1c-.31-3.3-2.29-6-4.3-8.61A11,11,0,0,0,235.36,26a17.1,17.1,0,0,1-4-1.3c-3.37-1.79-7.14-3.18-10.12-5.51a59.32,59.32,0,0,0-16.9-11.47c-4.79-2.91-10.28-4.14-15.7-5.3a84,84,0,0,0-15.54-2c-3.14-.06-6.25-.7-9.43-.32C156.53,1,149.25,1.2,142.31,3c-4,1-8,2.76-11.84,4.13-4.73,1.09-8.38,4.3-12.49,6.56-4.07,2.6-8.27,5-12.46,7.42a162.13,162.13,0,0,1-17.6,9.42A43.89,43.89,0,0,0,81.72,34c-4.86,3.14-5.16,8.72-4.31,13.67a6.13,6.13,0,0,0,1.83,3.52,16.38,16.38,0,0,0,5.64,4.26v.45c-1,.54-1.87,1.14-2.87,1.6a48.16,48.16,0,0,0-13.56,9.57c-3.35,3.28-6.69,6.57-10.1,9.81a9.88,9.88,0,0,1-6.65,2.69A39.45,39.45,0,0,0,42,81.76,144.78,144.78,0,0,0,21.38,89c-2.44,1-4.83,2.12-7.19,3.28C10.56,94.73,6.75,97,3.57,100A7.46,7.46,0,0,0,1,104.76c-.86,6.75-1.4,13.52-.47,20.3a141.33,141.33,0,0,0,7.76,31.39,107.43,107.43,0,0,0,22,38.49c4.23,4.91,9,9.41,13.62,14a7.26,7.26,0,0,0,1.27.9c6.78,4.09,13,9,20.48,12,7.4,3.27,6.35,2.66,6.23,10,0,3.7-.34,7.39.24,11.09a3.79,3.79,0,0,0,2,2.95,4.37,4.37,0,0,1,1.49,1.15c.86,1.48,2.64,1.45,4.09,2.07,5,1.72,10,3.57,15.36,4.15,3.07.33,6.11.78,9.17,1.17a147.33,147.33,0,0,0,15.4,1.54c3.69,0,7.37-.23,11.05-.34,6.53-.24,13.1-.06,19.6-.75,3.83-.46,7.65-1,11.46-1.53a42.08,42.08,0,0,0,8.3-1.87c2.21-.79,4.44-1.59,6.73-2.18a14.84,14.84,0,0,0,6-3.64,3.14,3.14,0,0,0,1.19-2.16,92.24,92.24,0,0,0,.21-15.05c-.29-3,1.87-4.55,4.5-5.63,8.27-3.35,15.6-8.27,22.83-13.2,6.49-5.26,11.76-11.71,17.2-17.88,8-9.28,13.14-20.17,17.79-31.15a160.15,160.15,0,0,0,9-34C256.31,121.36,256,116,255.68,110.77Zm-89.06,91.35q-7,6.4-21,6.4l-3.72-.05V188.54q7.38,0,7.38-5.23,0-4.78-5.64-4.79T138,185.09v49.65H113.63V187.43a38.26,38.26,0,0,1,1.59-12.05,23.88,23.88,0,0,1,5.43-8.77,30.5,30.5,0,0,1,10.78-7.13,35.49,35.49,0,0,1,13.37-2.61q12.47,0,20.95,7.79A25.19,25.19,0,0,1,174.23,184Q174.23,195.17,166.62,202.12ZM232.16,127a3,3,0,0,1-1.63,2.4,8.07,8.07,0,0,0-1.28-3.33c-1-1-1.67-.8-2.12.45a8.65,8.65,0,0,0,0,3c.21,2.82.2,2.81-2.59,4.11-4.61,3.33-3.32-1.65-5.61-3.79-.47-.45-.9-1-1.65-.7a1.38,1.38,0,0,0-.86,1.66,28.68,28.68,0,0,1,.52,4.45,16.55,16.55,0,0,1-8.26-4,60.43,60.43,0,0,1-8.71-9c-.41-.42-.55-1-1.22-1.06-.17,1.47.77,2.72.94,4.23A256,256,0,0,1,138,131.93c-1.69-.08-1.83-.22-1.85-1.75-.12-1.16.24-2.92-.22-3.92a2.64,2.64,0,0,0-1.34-.63c-.25,0-.56.44-.84.69,0,0,0,.1-.07.15-1.3,5-5,9-9.61,11.67-.88.52-1.36.33-1.83-.57-.81-1.38-1.64-5-3.58-4.71a3,3,0,0,0-1.74,2.83c.1.77.31,1.52.45,2.28.27,1.5-.22,2.26-1.84,2.42a42.31,42.31,0,0,1-5.16.19,2.49,2.49,0,0,1-1.52-.72c-1.56-1.5-2.72-3.38-4.22-4.9-.79-.72-3.3-1.4-2.91.39.19.9.51,1.78.85,2.94-4-1.32-6.38-4.74-7.87-8.26a28.66,28.66,0,0,1-2.78-10.37c0-2.86.21-5.72.33-8.65-.15.08-.41.13-.5.28-1.83,2.92-3.68,5.8-4.46,9.14-1.16,3.43.23,6.53,1,9.89-14.38-1-28.45-4-42.36-7.45-1.67-.43-1.79-.59-1.72-2.21a41.25,41.25,0,0,1,4.63-18.08c5.56-10.37,11.57-21,21.55-28.27A35.29,35.29,0,0,0,75,70C79.63,65.24,85.7,62,91.12,58c2.09-1.63,5-.84,6.91-2.71a6.72,6.72,0,0,1,1.15-.54,7.65,7.65,0,0,1,.52,1.93,20.74,20.74,0,0,0,1.81,7.7,44.41,44.41,0,0,0,3,6.17,4.84,4.84,0,0,0,2.36,2.14,74.16,74.16,0,0,0-1.62-8.22,31.1,31.1,0,0,1-.27-11c.32-2.58.73-5.16,1.28-7.7,1-5.56,4.63-10,7.08-15-2.39,2.34-4.66,4.79-7,7.22-3.12,3-3.41,7.9-7,10.39-2.89,1.91-6.68,3.65-10.28,2.38A10,10,0,0,1,82.68,44c-1.15-4.19,3.38-7.2,6.47-9.49a117,117,0,0,1,13.07-7.75c4.15-2.34,8.12-5,12.27-7.36,5.32-3.11,10.54-6.48,16.3-8.85,6.07-2.41,12.13-4.92,18.71-5.93,6.09-.93,12.17-2.18,18.42-1.54,1.6.16,3.21.27,4.81.28,9,.14,17.6,2.65,26,5.45a51.34,51.34,0,0,1,12.62,6.46c6.3,4.05,12.61,8.08,18.77,12.31a16.76,16.76,0,0,0,6.72,2.92,3.17,3.17,0,0,1,1.3.51c3.62,2.64,5.53,6.22,3.94,10.46A2.28,2.28,0,0,1,240.35,43a5,5,0,0,1-4.81-.91c-.56-.5-1.13-1-1.67-1.5L220.72,28.2a4.58,4.58,0,0,0-.84-.39c1.79,3.1,3.8,5.1,6.06,7.73a4.66,4.66,0,0,1,1,1.52c1.92,6.7,4.21,13.57,2.08,20.49-1,4-1.9,8.09-3.72,11.92-1.53,3.18-3.66,5.5-5.66,8.52l1.49-.13a50.68,50.68,0,0,1,3.23,7.44c2.6,8.67,5.34,16.9,7.49,25.74l-1.75-1.15a52.78,52.78,0,0,0,1.66,7.34A24.31,24.31,0,0,1,232.16,127Z"/>
    <path d="M216.14,33.06c2.76,3.31,0,5.81-2,8.22a5.13,5.13,0,0,1-3.28,1.81c-3,.47-6,.58-8.86-.83-1.83-.91-3.79-1.58-5.6-2.52a4.47,4.47,0,0,0-3.73-.27c-4,1.18-8,3-12.27,3.28-5.72.22-12-.4-16.34-4.32a6.88,6.88,0,0,1-2.15-5.6c0-1.31,1.41-1.85,2.57-1.1a21.28,21.28,0,0,1,2.15,2c5.41,5.55,12.78,5.3,18.2,3.34a16.6,16.6,0,0,0,6.68-4c1.54-1.64,3.55-1.37,5,.33,2.28,2.65,5.89,3.82,8.92,5.58a4.87,4.87,0,0,0,4.91-.1c2.05-1.15,4-2.42,5-4.57A10.64,10.64,0,0,1,216.14,33.06Z"/>
    <path d="M191.93,17.53a22.77,22.77,0,0,1,7.39,1.08c6.45,2.38,5.2,10.33-.83,10.83-5.19.68-10.88-.94-13.34-5.62C183.14,18.94,188.5,18.05,191.93,17.53Z"/>
    <path d="M176.45,60.72c8.32,2.86,17.68,4.75,25.85.5.47,2.61-1.47,4.71-3.83,5.82-5.37,2.5-10.7,2.13-15.95-.27a15.17,15.17,0,0,1-5-3.41A3.36,3.36,0,0,1,176.45,60.72Z"/>
    <path d="M161,20.36c-4.41.13-4.16-2.31-1.05-4.17a22.63,22.63,0,0,1,11.22-1.93,2,2,0,0,1,1.14,3.59,4.19,4.19,0,0,1-1.38.7A45,45,0,0,1,161,20.36Z"/>
    <path d="M217.56,25a5.31,5.31,0,0,1-1.36.09c-3.38-.73-6.71-1.57-9.59-3.44-2.26-1.38-2.73-3.57.74-2.83a23.5,23.5,0,0,1,7.53,2.94A5.07,5.07,0,0,1,217.56,25Z"/>
</svg>